<svg width="28" height="28" viewBox="0 0 28 28" fill="none" xmlns="http://www.w3.org/2000/svg">
<path d="M14.0001 27.3327C6.63608 27.3327 0.666748 21.3633 0.666748 13.9993C0.666748 6.63535 6.63608 0.666016 14.0001 0.666016C21.3641 0.666016 27.3334 6.63535 27.3334 13.9993C27.3334 21.3633 21.3641 27.3327 14.0001 27.3327ZM14.0001 24.666C16.8291 24.666 19.5422 23.5422 21.5426 21.5418C23.5429 19.5414 24.6667 16.8283 24.6667 13.9993C24.6667 11.1704 23.5429 8.45726 21.5426 6.45688C19.5422 4.45649 16.8291 3.33268 14.0001 3.33268C11.1711 3.33268 8.458 4.45649 6.45761 6.45688C4.45722 8.45726 3.33341 11.1704 3.33341 13.9993C3.33341 16.8283 4.45722 19.5414 6.45761 21.5418C8.458 23.5422 11.1711 24.666 14.0001 24.666ZM14.0001 12.114L17.7707 8.34202L19.6574 10.2287L15.8854 13.9993L19.6574 17.77L17.7707 19.6567L14.0001 15.8847L10.2294 19.6567L8.34275 17.77L12.1147 13.9993L8.34275 10.2287L10.2294 8.34202L14.0001 12.114Z" fill="white"/>
</svg>
