<svg width="48" height="48" viewBox="0 0 48 48" fill="none" xmlns="http://www.w3.org/2000/svg">
<path d="M0 24C0 10.7452 10.7452 0 24 0C37.2548 0 48 10.7452 48 24C48 37.2548 37.2548 48 24 48C10.7452 48 0 37.2548 0 24Z" fill="#345BB8"/>
<path d="M38.752 24.8319L17.554 38.9639C17.4034 39.0641 17.2285 39.1216 17.0478 39.1302C16.8671 39.1389 16.6875 39.0983 16.528 39.013C16.3685 38.9276 16.2352 38.8006 16.1422 38.6454C16.0492 38.4902 16.0001 38.3128 16 38.1319V9.86789C16.0001 9.68701 16.0492 9.50954 16.1422 9.35438C16.2352 9.19922 16.3685 9.07219 16.528 8.98681C16.6875 8.90143 16.8671 8.86091 17.0478 8.86955C17.2285 8.87819 17.4034 8.93568 17.554 9.03589L38.752 23.1679C38.889 23.2592 39.0013 23.3829 39.0789 23.5281C39.1566 23.6732 39.1972 23.8353 39.1972 23.9999C39.1972 24.1645 39.1566 24.3266 39.0789 24.4717C39.0013 24.6168 38.889 24.7406 38.752 24.8319Z" fill="white"/>
</svg>
